<?xml version="1.0" encoding="utf-8"?>
<svg data-id="tree" width="100%" height="100%" viewBox="0 0 1000 500">

    <path d="M440,150 L 250,200" stroke="firebrick"/>
    <path d="M560,150 L 750,200" stroke="white"/>



    <path d="M190,250 L 125,300" stroke="white"/>
    <path d="M310,250 L 375,300" stroke="firebrick"/>

    <path d="M690,250 L 625,300" stroke="white"/>
    <path d="M810,250 L 875,300" stroke="white"/>


    <path d="M125,350 L 125,400" stroke="white"/>

    <svg
        x="440"
        y="100"
        width="120"
        height="50"
        class="event_box text_box"
    >
        <text x="50%" y="50%" font-size="24">16, 25, 30</text>
    </svg>

    <svg
        x="190"
        y="200"
        width="120"
        height="50"
        class="event_box text_box"
    >
        <text x="50%" y="50%" font-size="24">9, 14, 26</text>
    </svg>

    <svg
        x="690"
        y="200"
        width="120"
        height="50"
        class="event_box text_box"
    >
        <text x="50%" y="50%" font-size="24">21, 28, 30</text>
    </svg>

        <svg
        x="65"
        y="300"
        width="120"
        height="50"
        class="event_box text_box"
    >
            <text x="50%" y="50%" font-size="24">4, 11, 11</text>
        </svg>

        <svg
        x="315"
        y="300"
        width="120"
        height="50"
        class="event_box text_box"
    >
            <text x="50%" y="50%" font-size="24">12, 26, 26</text>
        </svg>

        <svg
        x="565"
        y="300"
        width="120"
        height="50"
        class="event_box text_box"
    >
            <text x="50%" y="50%" font-size="24">18, 20, 20</text>
        </svg>

        <svg
        x="815"
        y="300"
        width="120"
        height="50"
        class="event_box text_box"
    >
            <text x="50%" y="50%" font-size="24">24, 30, 30</text>
        </svg>

        <svg
        x="65"
        y="400"
        width="120"
        height="50"
        class="event_box text_box"
    >
            <text x="50%" y="50%" font-size="24">3, 6, 6</text>
        </svg>

</svg>
