<?xml version="1.0"?>
<svg width="1729" height="2008" xmlns="http://www.w3.org/2000/svg" xmlns:svg="http://www.w3.org/2000/svg" version="1.1">

 <g class="layer">
  <title>Layer 1</title>
  <g id="svg_1" transform="matrix(0.2963953556009797,0,0,0.2963953556009797,69.4225025869613,71.02691324181598)">
   <g id="svg_2" stroke="#000">
    <g clip-path="url(#a)" fill="#fff" id="svg_3" transform="matrix(6.469099998474121,0,0,-6.469099998474121,-469.2659912109375,3741.034912109375)">
     <path d="m137.86,534.92l2.1,0l10.08,-22.44l-77.22,0l7.02,22.44l2.1,0m9.24,0l37.44,0m0.01,-27.24l-55.81,0l0,4.8l77.22,0l0,-4.8l-21.48,0" id="svg_4" stroke-linecap="round" stroke-linejoin="round" stroke-miterlimit="10" stroke-width="0.6"/>
    </g>
    <g clip-path="url(#a)" id="svg_5" transform="matrix(6.469099998474121,0,0,-6.469099998474121,-469.2659912109375,3741.034912109375)">
     <path d="m134.54,523.67l2.19,-5.67m13.32,-5.52l-77.22,0m11.1,16.86l-3.54,-11.34l61.08,0l-5.1,11.34l-52.44,0zm-0.9,-2.82l54.6,0m-55.5,-2.82l56.82,0m-57.66,-2.82l58.92,0m-55.14,-2.88l2.88,11.34m8.1,0l-1.56,-11.34m5.58,11.34l-0.68,-8.5m4.7,8.5l-0.18,-8.5m4.2,8.5l0.36,-8.5m3.72,8.5l0.81,-8.5m3.21,8.5l1.3,-8.5m2.72,8.5l1.84,-8.5m2.18,8.5l3.12,-11.34m4.98,11.34l1.09,-2.84m-5.11,2.84l3.72,-11.34m-40.08,11.34l-2.22,-11.34m-16.92,-10.32l0,4.8l77.22,0l0,-4.8" fill="none" id="svg_6" stroke-linecap="round" stroke-linejoin="round" stroke-miterlimit="10" stroke-width="0.6"/>
    </g>
    <g clip-path="url(#a)" fill="#fff" id="svg_7" transform="matrix(6.469099998474121,0,0,-6.469099998474121,-469.2659912109375,3741.034912109375)">
     <path d="m137.86,535.46l-58.02,0l0,42.54l60.13,0l0,-42.54l-2.1,0" id="svg_8" stroke-linecap="round" stroke-linejoin="round" stroke-miterlimit="10" stroke-width="0.6"/>
    </g>
    <g clip-path="url(#a)" fill="#7f7f7f" id="svg_9" stroke-linecap="round" stroke-linejoin="round" stroke-miterlimit="10" stroke-width="0.6" transform="matrix(6.469099998474121,0,0,-6.469099998474121,-469.2659912109375,3741.034912109375)">
     <path d="m85.3,574.28l49.51,0l0,-35.1l-49.51,0l0,35.1z" id="svg_10"/>
     <path d="m85.3,574.28l49.51,0l0,-35.1l-49.51,0l0,35.1z" id="svg_11"/>
    </g>
    <path d="m82.57,253.09l320.24,0" fill="#e3e3e3" fill-rule="evenodd" id="svg_12" stroke-width="6.47"/>
    <g clip-path="url(#a)" id="svg_13" transform="matrix(6.469099998474121,0,0,-6.469099998474121,-469.2659912109375,3741.034912109375)">
     <path d="m137.86,536.18l-9.24,0l0,-1.98l9.24,0l0,1.98z" fill="none" id="svg_14" stroke-linecap="round" stroke-linejoin="round" stroke-miterlimit="10" stroke-width="0.6"/>
    </g>
    <g clip-path="url(#a)" id="svg_15" transform="matrix(6.469099998474121,0,0,-6.469099998474121,-469.2659912109375,3741.034912109375)">
     <path d="m81.94,536.18l9.24,0l0,-1.98l-9.24,0l0,1.98z" fill="none" id="svg_16" stroke-linecap="round" stroke-linejoin="round" stroke-miterlimit="10" stroke-width="0.6"/>
    </g>
   </g>
  </g>
  <g id="svg_17" transform="matrix(0.2963953556009797,0,0,0.2963953556009797,75.4225025869613,416.026913241816)">
   <g id="svg_18" stroke="#000">
    <g clip-path="url(#a)" fill="#fff" id="svg_19" transform="matrix(6.469099998474121,0,0,-6.469099998474121,-469.2659912109375,3741.034912109375)">
     <path d="m137.86,534.92l2.1,0l10.08,-22.44l-77.22,0l7.02,22.44l2.1,0m9.24,0l37.44,0m0.01,-27.24l-55.81,0l0,4.8l77.22,0l0,-4.8l-21.48,0" id="svg_20" stroke-linecap="round" stroke-linejoin="round" stroke-miterlimit="10" stroke-width="0.6"/>
    </g>
    <g clip-path="url(#a)" id="svg_21" transform="matrix(6.469099998474121,0,0,-6.469099998474121,-469.2659912109375,3741.034912109375)">
     <path d="m134.54,523.67l2.19,-5.67m13.32,-5.52l-77.22,0m11.1,16.86l-3.54,-11.34l61.08,0l-5.1,11.34l-52.44,0zm-0.9,-2.82l54.6,0m-55.5,-2.82l56.82,0m-57.66,-2.82l58.92,0m-55.14,-2.88l2.88,11.34m8.1,0l-1.56,-11.34m5.58,11.34l-0.68,-8.5m4.7,8.5l-0.18,-8.5m4.2,8.5l0.36,-8.5m3.72,8.5l0.81,-8.5m3.21,8.5l1.3,-8.5m2.72,8.5l1.84,-8.5m2.18,8.5l3.12,-11.34m4.98,11.34l1.09,-2.84m-5.11,2.84l3.72,-11.34m-40.08,11.34l-2.22,-11.34m-16.92,-10.32l0,4.8l77.22,0l0,-4.8" fill="none" id="svg_22" stroke-linecap="round" stroke-linejoin="round" stroke-miterlimit="10" stroke-width="0.6"/>
    </g>
    <g clip-path="url(#a)" fill="#fff" id="svg_23" transform="matrix(6.469099998474121,0,0,-6.469099998474121,-469.2659912109375,3741.034912109375)">
     <path d="m137.86,535.46l-58.02,0l0,42.54l60.13,0l0,-42.54l-2.1,0" id="svg_24" stroke-linecap="round" stroke-linejoin="round" stroke-miterlimit="10" stroke-width="0.6"/>
    </g>
    <g clip-path="url(#a)" fill="#7f7f7f" id="svg_25" stroke-linecap="round" stroke-linejoin="round" stroke-miterlimit="10" stroke-width="0.6" transform="matrix(6.469099998474121,0,0,-6.469099998474121,-469.2659912109375,3741.034912109375)">
     <path d="m85.3,574.28l49.51,0l0,-35.1l-49.51,0l0,35.1z" id="svg_26"/>
     <path d="m85.3,574.28l49.51,0l0,-35.1l-49.51,0l0,35.1z" id="svg_27"/>
    </g>
    <path d="m82.57,253.09l320.24,0" fill="#e3e3e3" fill-rule="evenodd" id="svg_28" stroke-width="6.47"/>
    <g clip-path="url(#a)" id="svg_29" transform="matrix(6.469099998474121,0,0,-6.469099998474121,-469.2659912109375,3741.034912109375)">
     <path d="m137.86,536.18l-9.24,0l0,-1.98l9.24,0l0,1.98z" fill="none" id="svg_30" stroke-linecap="round" stroke-linejoin="round" stroke-miterlimit="10" stroke-width="0.6"/>
    </g>
    <g clip-path="url(#a)" id="svg_31" transform="matrix(6.469099998474121,0,0,-6.469099998474121,-469.2659912109375,3741.034912109375)">
     <path d="m81.94,536.18l9.24,0l0,-1.98l-9.24,0l0,1.98z" fill="none" id="svg_32" stroke-linecap="round" stroke-linejoin="round" stroke-miterlimit="10" stroke-width="0.6"/>
    </g>
   </g>
  </g>
  <g id="svg_33" transform="matrix(0.2963953556009797,0,0,0.2963953556009797,523.4225025869613,74.02691324181598)">
   <g id="svg_34" stroke="#000">
    <g clip-path="url(#a)" fill="#fff" id="svg_35" transform="matrix(6.469099998474121,0,0,-6.469099998474121,-469.2659912109375,3741.034912109375)">
     <path d="m137.86,534.92l2.1,0l10.08,-22.44l-77.22,0l7.02,22.44l2.1,0m9.24,0l37.44,0m0.01,-27.24l-55.81,0l0,4.8l77.22,0l0,-4.8l-21.48,0" id="svg_36" stroke-linecap="round" stroke-linejoin="round" stroke-miterlimit="10" stroke-width="0.6"/>
    </g>
    <g clip-path="url(#a)" id="svg_37" transform="matrix(6.469099998474121,0,0,-6.469099998474121,-469.2659912109375,3741.034912109375)">
     <path d="m134.54,523.67l2.19,-5.67m13.32,-5.52l-77.22,0m11.1,16.86l-3.54,-11.34l61.08,0l-5.1,11.34l-52.44,0zm-0.9,-2.82l54.6,0m-55.5,-2.82l56.82,0m-57.66,-2.82l58.92,0m-55.14,-2.88l2.88,11.34m8.1,0l-1.56,-11.34m5.58,11.34l-0.68,-8.5m4.7,8.5l-0.18,-8.5m4.2,8.5l0.36,-8.5m3.72,8.5l0.81,-8.5m3.21,8.5l1.3,-8.5m2.72,8.5l1.84,-8.5m2.18,8.5l3.12,-11.34m4.98,11.34l1.09,-2.84m-5.11,2.84l3.72,-11.34m-40.08,11.34l-2.22,-11.34m-16.92,-10.32l0,4.8l77.22,0l0,-4.8" fill="none" id="svg_38" stroke-linecap="round" stroke-linejoin="round" stroke-miterlimit="10" stroke-width="0.6"/>
    </g>
    <g clip-path="url(#a)" fill="#fff" id="svg_39" transform="matrix(6.469099998474121,0,0,-6.469099998474121,-469.2659912109375,3741.034912109375)">
     <path d="m137.86,535.46l-58.02,0l0,42.54l60.13,0l0,-42.54l-2.1,0" id="svg_40" stroke-linecap="round" stroke-linejoin="round" stroke-miterlimit="10" stroke-width="0.6"/>
    </g>
    <g clip-path="url(#a)" fill="#7f7f7f" id="svg_41" stroke-linecap="round" stroke-linejoin="round" stroke-miterlimit="10" stroke-width="0.6" transform="matrix(6.469099998474121,0,0,-6.469099998474121,-469.2659912109375,3741.034912109375)">
     <path d="m85.3,574.28l49.51,0l0,-35.1l-49.51,0l0,35.1z" id="svg_42"/>
     <path d="m85.3,574.28l49.51,0l0,-35.1l-49.51,0l0,35.1z" id="svg_43"/>
    </g>
    <path d="m82.57,253.09l320.24,0" fill="#e3e3e3" fill-rule="evenodd" id="svg_44" stroke-width="6.47"/>
    <g clip-path="url(#a)" id="svg_45" transform="matrix(6.469099998474121,0,0,-6.469099998474121,-469.2659912109375,3741.034912109375)">
     <path d="m137.86,536.18l-9.24,0l0,-1.98l9.24,0l0,1.98z" fill="none" id="svg_46" stroke-linecap="round" stroke-linejoin="round" stroke-miterlimit="10" stroke-width="0.6"/>
    </g>
    <g clip-path="url(#a)" id="svg_47" transform="matrix(6.469099998474121,0,0,-6.469099998474121,-469.2659912109375,3741.034912109375)">
     <path d="m81.94,536.18l9.24,0l0,-1.98l-9.24,0l0,1.98z" fill="none" id="svg_48" stroke-linecap="round" stroke-linejoin="round" stroke-miterlimit="10" stroke-width="0.6"/>
    </g>
   </g>
  </g>
  <g id="svg_49" transform="matrix(0.2963953556009797,0,0,0.2963953556009797,524.4225025869613,416.026913241816)">
   <g id="svg_50" stroke="#000">
    <g clip-path="url(#a)" fill="#fff" id="svg_51" transform="matrix(6.469099998474121,0,0,-6.469099998474121,-469.2659912109375,3741.034912109375)">
     <path d="m137.86,534.92l2.1,0l10.08,-22.44l-77.22,0l7.02,22.44l2.1,0m9.24,0l37.44,0m0.01,-27.24l-55.81,0l0,4.8l77.22,0l0,-4.8l-21.48,0" id="svg_52" stroke-linecap="round" stroke-linejoin="round" stroke-miterlimit="10" stroke-width="0.6"/>
    </g>
    <g clip-path="url(#a)" id="svg_53" transform="matrix(6.469099998474121,0,0,-6.469099998474121,-469.2659912109375,3741.034912109375)">
     <path d="m134.54,523.67l2.19,-5.67m13.32,-5.52l-77.22,0m11.1,16.86l-3.54,-11.34l61.08,0l-5.1,11.34l-52.44,0zm-0.9,-2.82l54.6,0m-55.5,-2.82l56.82,0m-57.66,-2.82l58.92,0m-55.14,-2.88l2.88,11.34m8.1,0l-1.56,-11.34m5.58,11.34l-0.68,-8.5m4.7,8.5l-0.18,-8.5m4.2,8.5l0.36,-8.5m3.72,8.5l0.81,-8.5m3.21,8.5l1.3,-8.5m2.72,8.5l1.84,-8.5m2.18,8.5l3.12,-11.34m4.98,11.34l1.09,-2.84m-5.11,2.84l3.72,-11.34m-40.08,11.34l-2.22,-11.34m-16.92,-10.32l0,4.8l77.22,0l0,-4.8" fill="none" id="svg_54" stroke-linecap="round" stroke-linejoin="round" stroke-miterlimit="10" stroke-width="0.6"/>
    </g>
    <g clip-path="url(#a)" fill="#fff" id="svg_55" transform="matrix(6.469099998474121,0,0,-6.469099998474121,-469.2659912109375,3741.034912109375)">
     <path d="m137.86,535.46l-58.02,0l0,42.54l60.13,0l0,-42.54l-2.1,0" id="svg_56" stroke-linecap="round" stroke-linejoin="round" stroke-miterlimit="10" stroke-width="0.6"/>
    </g>
    <g clip-path="url(#a)" fill="#7f7f7f" id="svg_57" stroke-linecap="round" stroke-linejoin="round" stroke-miterlimit="10" stroke-width="0.6" transform="matrix(6.469099998474121,0,0,-6.469099998474121,-469.2659912109375,3741.034912109375)">
     <path d="m85.3,574.28l49.51,0l0,-35.1l-49.51,0l0,35.1z" id="svg_58"/>
     <path d="m85.3,574.28l49.51,0l0,-35.1l-49.51,0l0,35.1z" id="svg_59"/>
    </g>
    <path d="m82.57,253.09l320.24,0" fill="#e3e3e3" fill-rule="evenodd" id="svg_60" stroke-width="6.47"/>
    <g clip-path="url(#a)" id="svg_61" transform="matrix(6.469099998474121,0,0,-6.469099998474121,-469.2659912109375,3741.034912109375)">
     <path d="m137.86,536.18l-9.24,0l0,-1.98l9.24,0l0,1.98z" fill="none" id="svg_62" stroke-linecap="round" stroke-linejoin="round" stroke-miterlimit="10" stroke-width="0.6"/>
    </g>
    <g clip-path="url(#a)" id="svg_63" transform="matrix(6.469099998474121,0,0,-6.469099998474121,-469.2659912109375,3741.034912109375)">
     <path d="m81.94,536.18l9.24,0l0,-1.98l-9.24,0l0,1.98z" fill="none" id="svg_64" stroke-linecap="round" stroke-linejoin="round" stroke-miterlimit="10" stroke-width="0.6"/>
    </g>
   </g>
  </g>
  <g id="svg_92" transform="rotate(49.6977, 588.068, 324.29) matrix(-0.789284, -0.614028, 0.614028, -0.789284, 626.32, 378.121)">
   <g id="svg_93">
    <g id="svg_94">
     <g id="svg_95">
      <path d="m124.99,19l-35,-17.5l4.99,9.97l-93.48,6.03l0,3l93.48,6.03l-4.99,9.97l35,-17.5zl0,0z" fill="#ffffff" id="svg_96" stroke="#000000" stroke-linecap="round"/>
     </g>
    </g>
   </g>
  </g>
  <g id="svg_97" transform="matrix(0.0164068, -0.999865, 0.999865, 0.0164068, 120.85, 381.821)">
   <g id="svg_98">
    <g id="svg_99">
     <g id="svg_100">
      <path d="m130.77,19l-35,-17.5l4.97,9.93l-99.24,6.07l0,3l99.24,6.07l-4.97,9.93l35,-17.5zl0,0z" fill="#ffffff" id="svg_101" stroke="#000000" stroke-linecap="round"/>
     </g>
    </g>
   </g>
  </g>
  <g id="svg_107" transform="rotate(-88.1733, 369.993, 496.167) matrix(-0.0422412, -0.999107, 0.999107, -0.0422412, 353.681, 560.158)">
   <g id="svg_108">
    <g id="svg_109">
     <g id="svg_110">
      <path d="m124.99,19l-35,-17.5l4.99,9.97l-93.48,6.03l0,3l93.48,6.03l-4.99,9.97l35,-17.5zl0,0z" fill="#ffffff" id="svg_111" stroke="#000000" stroke-linecap="round"/>
     </g>
    </g>
   </g>
  </g>
  <g id="svg_112" transform="matrix(1, 0, 0, 1, 307, 118)">
   <g id="svg_113">
    <g id="svg_114">
     <g id="svg_115">
      <path d="m124.99,19l-35,-17.5l4.99,9.97l-93.48,6.03l0,3l93.48,6.03l-4.99,9.97l35,-17.5zl0,0z" fill="#ffffff" id="svg_116" stroke="#000000" stroke-linecap="round"/>
     </g>
    </g>
   </g>
  </g>
  <g id="svg_117" transform="matrix(1.2028, 0.859145, -0.879713, 1.2316, 304.643, 235.93)">
   <g id="svg_118">
    <g id="svg_119">
     <g id="svg_120">
      <path d="m124.99,19l-35,-17.5l4.99,9.97l-93.48,6.03l0,3l93.48,6.03l-4.99,9.97l35,-17.5zl0,0z" fill="#ffffff" id="svg_121" stroke="#000000" stroke-linecap="round"/>
     </g>
    </g>
   </g>
  </g>
 </g>
</svg>